<svg id="Group_5629" data-name="Group 5629" xmlns="http://www.w3.org/2000/svg" width="432.075" height="589.934" viewBox="0 0 432.075 589.934">
  <g id="Group_5628" data-name="Group 5628" transform="translate(0 0)">
    <rect id="Rectangle_848" data-name="Rectangle 848" width="432.075" height="589.934" rx="28" fill="#272534"/>
    <text id="import_java.applet.Applet_import_java.awt.Color_import_java.awt.Font_import_java.awt.Graphics_import_java.awt.Label_import_java.awt.TextField_import_java.util.Calendar_import_java.util.GregorianCalendar_public_class_AppletLogo_extends_Applet_imp" data-name="import java.applet.Applet;
import java.awt.Color;
import java.awt.Font;
import java.awt.Graphics;
import java.awt.Label;
import java.awt.TextField;
import java.util.Calendar;
import java.util.GregorianCalendar;


public class AppletLogo extends Applet 
imp" transform="translate(32.609 46.477)" fill="#eaa219" font-size="15" font-family="Consolas"><tspan x="0" y="0">import java.applet.Applet;</tspan><tspan x="0" y="18">import java.awt.Color;</tspan><tspan x="0" y="36">import java.awt.Font;</tspan><tspan x="0" y="54">import java.awt.Graphics;</tspan><tspan x="0" y="72">import java.awt.Label;</tspan><tspan x="0" y="90">import java.awt.TextField;</tspan><tspan x="0" y="108">import java.util.Calendar;</tspan><tspan x="0" y="126">import java.util.GregorianCalendar;</tspan><tspan fill="#707070"><tspan x="0" y="144"></tspan><tspan x="0" y="162"></tspan></tspan><tspan fill="#fff"><tspan x="0" y="180">public class </tspan><tspan y="180" fill="#e0157d">AppletLogo </tspan><tspan y="180">extends</tspan><tspan y="180" fill="#707070"> </tspan><tspan y="180" fill="#e0157d">Applet </tspan><tspan x="0" y="198">implements</tspan><tspan y="198" fill="#707070"> </tspan><tspan y="198" fill="#eaa219">Runnable</tspan></tspan><tspan fill="#707070"><tspan x="0" y="216">{</tspan><tspan x="0" y="234" xml:space="preserve">  </tspan><tspan y="234" fill="#49be55">Thread </tspan><tspan y="234" fill="#fff">t,t1;</tspan><tspan x="0" y="252" xml:space="preserve">  </tspan><tspan y="252" fill="#49be55">Label </tspan><tspan y="252" fill="#fff">l1,l2;</tspan><tspan x="0" y="270" xml:space="preserve">  </tspan><tspan y="270" fill="#49be55">TextField </tspan><tspan y="270" fill="#fff">t2,t3;</tspan><tspan x="0" y="288" xml:space="preserve">  </tspan><tspan y="288" fill="#e0157d">int </tspan><tspan y="288" fill="#fff">day, month, year;</tspan><tspan x="0" y="306" xml:space="preserve">  </tspan><tspan y="306" fill="#fff">public</tspan><tspan y="306"> </tspan><tspan y="306" fill="#e0157d">void </tspan><tspan y="306" fill="#fff">init()</tspan><tspan x="0" y="324"> </tspan><tspan y="324" xml:space="preserve" fill="#fff"> {</tspan></tspan><tspan fill="#fff"><tspan x="0" y="342" xml:space="preserve">   l1=new Label(&quot;Time&quot;);</tspan><tspan x="0" y="360" xml:space="preserve">   t2=new TextField(20); </tspan><tspan x="0" y="378" xml:space="preserve">   l2=new Label(&quot;Date&quot;);</tspan><tspan x="0" y="396" xml:space="preserve">   t3=new TextField(20); </tspan><tspan x="0" y="414" xml:space="preserve">   </tspan></tspan><tspan fill="#707070"><tspan x="0" y="432" xml:space="preserve">   </tspan><tspan y="432" fill="#49be55">add</tspan><tspan y="432" fill="#fff">(l1);</tspan><tspan x="0" y="450" xml:space="preserve">   </tspan><tspan y="450" fill="#49be55">add</tspan><tspan y="450" fill="#fff">(t2);</tspan><tspan x="0" y="468" xml:space="preserve">   </tspan><tspan y="468" fill="#49be55">add</tspan><tspan y="468" fill="#fff">(l2);</tspan><tspan x="0" y="486" xml:space="preserve">   </tspan><tspan y="486" fill="#49be55">add</tspan><tspan y="486" fill="#fff">(t3); </tspan><tspan y="486"> </tspan><tspan x="0" y="504" xml:space="preserve">  </tspan><tspan y="504" fill="#fff">}</tspan><tspan y="504" xml:space="preserve">      </tspan></tspan></text>
  </g>
  <circle id="Ellipse_2" data-name="Ellipse 2" cx="5.16" cy="5.16" r="5.16" transform="translate(366.649 16.566)" fill="#f31349"/>
  <circle id="Ellipse_3" data-name="Ellipse 3" cx="5.16" cy="5.16" r="5.16" transform="translate(384.392 16.566)" fill="#49be55"/>
  <circle id="Ellipse_4" data-name="Ellipse 4" cx="5.16" cy="5.16" r="5.16" transform="translate(401.411 16.566)" fill="#eaa219"/>
</svg>
