<svg xmlns="http://www.w3.org/2000/svg" xmlns:xlink="http://www.w3.org/1999/xlink" width="212" height="211" viewBox="0 0 212 211">
  <defs>
    <filter id="Ellipse_273" x="0" y="0" width="212" height="211" filterUnits="userSpaceOnUse">
      <feOffset dy="3" input="SourceAlpha"/>
      <feGaussianBlur stdDeviation="27" result="blur"/>
      <feFlood flood-color="#60e3b7"/>
      <feComposite operator="in" in2="blur"/>
      <feComposite in="SourceGraphic"/>
    </filter>
  </defs>
  <g id="Group_5650" data-name="Group 5650" transform="translate(81.269 77.803)">
    <g id="Group_5649" data-name="Group 5649">
      <g transform="matrix(1, 0, 0, 1, -81.27, -77.8)" filter="url(#Ellipse_273)">
        <ellipse id="Ellipse_273-2" data-name="Ellipse 273" cx="25" cy="24.5" rx="25" ry="24.5" transform="translate(81 78)" fill="#fff"/>
      </g>
    </g>
    <path id="Icon_awesome-arrow-right" data-name="Icon awesome-arrow-right" d="M8.671,3.979l1.01-1.01a1.088,1.088,0,0,1,1.543,0l8.848,8.844a1.088,1.088,0,0,1,0,1.543L11.224,22.2a1.088,1.088,0,0,1-1.543,0l-1.01-1.01a1.094,1.094,0,0,1,.018-1.561l5.485-5.225H1.092A1.09,1.09,0,0,1,0,13.314V11.857a1.09,1.09,0,0,1,1.092-1.092H14.174L8.689,5.54A1.086,1.086,0,0,1,8.671,3.979Z" transform="translate(14.563 11.936)"/>
  </g>
</svg>
