<svg id="Group_5825" data-name="Group 5825" xmlns="http://www.w3.org/2000/svg" width="456.265" height="220.145" viewBox="0 0 456.265 220.145">
  <g id="Group_5824" data-name="Group 5824" transform="translate(136.009 0)">
    <path id="Path_14389" data-name="Path 14389" d="M519.164,452.312a108.184,108.184,0,1,1,76.5-31.686,108.184,108.184,0,0,1-76.5,31.686Zm0-215.246A107.062,107.062,0,1,0,626.227,344.129,107.184,107.184,0,0,0,519.164,237.066Z" transform="translate(-307.094 -235.933)" fill="#3f3d56"/>
    <ellipse id="Ellipse_305" data-name="Ellipse 305" cx="41.874" cy="41.874" rx="41.874" ry="41.874" transform="translate(173.207 135.029)" fill="#f2f2f2"/>
    <path id="Path_14396" data-name="Path 14396" d="M348.082,470.874l-10.316,25.789-37.3.3-12.152.1-28.837.232-12.147.1-28.837.232-12.147.1-28.837.237-12.147.1-19.466.155-3.765-7.706-4.884-9.98-2.7-5.524L133,470.874l9.258-29.322a14.136,14.136,0,0,1,13.477-9.877H324.18a14.139,14.139,0,0,1,13.312,9.4l1.073,3.022Z" transform="translate(-133 -358.528)" fill="#6c63ff"/>
    <rect id="Rectangle_871" data-name="Rectangle 871" width="215.082" height="54.157" transform="translate(0 112.347)" fill="#6c63ff"/>
    <rect id="Rectangle_872" data-name="Rectangle 872" width="215.082" height="54.157" transform="translate(0 112.347)" opacity="0.1"/>
    <rect id="Rectangle_873" data-name="Rectangle 873" width="6.345" height="6.345" transform="translate(211.91 37.957)" fill="#3f3d56"/>
    <rect id="Rectangle_874" data-name="Rectangle 874" width="6.345" height="6.345" transform="translate(229.04 173.731)" fill="#3f3d56"/>
    <rect id="Rectangle_875" data-name="Rectangle 875" width="137.714" height="173.302" transform="translate(38.426 42.458)" fill="#f2f2f2"/>
    <rect id="Rectangle_876" data-name="Rectangle 876" width="40.231" height="5.674" transform="translate(67.31 54.837)" fill="#3f3d56"/>
    <rect id="Rectangle_877" data-name="Rectangle 877" width="121.209" height="2.579" transform="translate(46.163 78.047)" fill="#e6e6e6"/>
    <rect id="Rectangle_878" data-name="Rectangle 878" width="121.209" height="2.579" transform="translate(46.163 86.299)" fill="#e6e6e6"/>
    <rect id="Rectangle_879" data-name="Rectangle 879" width="121.209" height="2.579" transform="translate(46.163 94.552)" fill="#e6e6e6"/>
    <rect id="Rectangle_880" data-name="Rectangle 880" width="121.209" height="2.579" transform="translate(46.163 102.804)" fill="#e6e6e6"/>
    <rect id="Rectangle_881" data-name="Rectangle 881" width="121.209" height="2.579" transform="translate(46.163 111.057)" fill="#e6e6e6"/>
    <rect id="Rectangle_882" data-name="Rectangle 882" width="121.209" height="2.579" transform="translate(46.163 119.309)" fill="#e6e6e6"/>
    <path id="Path_14397" data-name="Path 14397" d="M255.638,380.89a8.768,8.768,0,1,1,8.768-8.768,8.768,8.768,0,0,1-8.768,8.768Zm0-16.505a7.737,7.737,0,1,0,7.737,7.737,7.737,7.737,0,0,0-7.737-7.737Z" transform="translate(-204.318 -315.737)" fill="#6c63ff"/>
    <path id="Path_14398" data-name="Path 14398" d="M265.082,606.293H50V498.5l27.852,21.663,160.408-1.032L265.082,498.5Z" transform="translate(-50 -386.149)" fill="#3f3d56"/>
    <rect id="Rectangle_883" data-name="Rectangle 883" width="40.231" height="5.674" transform="translate(11.089 195.129)" fill="#f2f2f2"/>
    <path id="Path_14399" data-name="Path 14399" d="M211.656,714.56a4.484,4.484,0,1,1,4.484-4.484,4.484,4.484,0,0,1-4.484,4.484Zm0-8.221a3.737,3.737,0,1,0,3.737,3.737A3.737,3.737,0,0,0,211.656,706.338Z" transform="translate(-179.454 -530.084)" fill="#fff"/>
    <ellipse id="Ellipse_306" data-name="Ellipse 306" cx="4.484" cy="4.484" rx="4.484" ry="4.484" transform="translate(302 87.407)" fill="#2f2e41"/>
    <ellipse id="Ellipse_307" data-name="Ellipse 307" cx="4.484" cy="4.484" rx="4.484" ry="4.484" transform="translate(270.237 108.334)" fill="#2f2e41"/>
  </g>
  <ellipse id="Ellipse_308" data-name="Ellipse 308" cx="41.874" cy="41.874" rx="41.874" ry="41.874" transform="translate(77.573 0.353)" fill="#f2f2f2"/>
  <ellipse id="Ellipse_309" data-name="Ellipse 309" cx="21.942" cy="21.942" rx="21.942" ry="21.942" transform="translate(0 110.248)" fill="#f2f2f2"/>
</svg>
