<svg xmlns="http://www.w3.org/2000/svg" width="668.297" height="577.225" viewBox="0 0 668.297 577.225">
  <g id="Group_5819" data-name="Group 5819" transform="translate(-1126.492 -7013.494)">
    <g id="Group_5812" data-name="Group 5812" transform="translate(1127 7014)">
      <g id="Group_5809" data-name="Group 5809" transform="translate(0 0)" opacity="0.65">
        <path id="Path_14362" data-name="Path 14362" d="M244.772,76.971c-13-2.938-26.429-2.659-39.094,1.979-25.372,9.295-42.548,34.155-49.389,60.3-17.756,67.845,20.807,138.039-1.543,205.215-13.73,41.267-49.665,73.319-58.624,115.878-6.932,32.928,3.927,67.955,24,94.965,30.838,41.5,88.112,65.584,136.542,47.473,36.013-13.469,60.675-46.092,84.093-76.587s50.158-62.14,87.327-71.977c59.42-15.725,102.082,43.729,159.289,43.248,37.171-.313,70.077-29.417,82.5-64.451,10.991-30.991,7.962-66.57-7.7-95.486s-43.61-50.8-75.31-59.542c-43.739-12.056-89.234-.154-133.654-4.385-24.569-2.34-51.84-11.248-72.273-25.253-46.616-31.957-47.906-99.119-84.111-139.783C283.223,93.284,264.49,81.427,244.772,76.971Z" transform="translate(-18.299 -51.25)" fill="none" stroke="#000" stroke-linecap="round" stroke-linejoin="round" stroke-width="1"/>
        <path id="Path_14363" data-name="Path 14363" d="M455.994,81.7a80.059,80.059,0,0,0-10.234-8.284c-23.112-15.692-55.168-17.027-79.5-3.307-54.236,30.576-34.345,109.275-75.479,152.248-20.109,21.007-48.332,32.169-76.355,39.937s-56.987,12.842-83.616,24.526c-27.4,12.023-52.152,31.474-66.952,57.483-37.435,65.791-3.684,154.29,59.732,189.966,44.066,24.79,101.146,24.6,145.047-.479,48.306-27.6,79.337-81.45,131.112-101.806,29.391-11.555,62.221-10.781,93.439-6.006,51.262,7.843,108.284,30.9,158.894,8.255,41.515-18.575,65.162-66.375,63.335-111.818-1.225-30.454-12.913-60.951-34.755-82.206-21.316-20.744-47.491-28.5-76.592-26.634-26.026,1.665-56,9.2-79.4-6.4-26.7-17.788-29.44-54.738-40.792-82.186C477.272,109.027,468.394,93.507,455.994,81.7Z" transform="translate(-48.231 -60.659)" fill="none" stroke="#000" stroke-linecap="round" stroke-linejoin="round" stroke-width="1" stroke-dasharray="0 7"/>
      </g>
      <g id="Group_5810" data-name="Group 5810" transform="translate(59.331 81.31)">
        <circle id="Ellipse_294" data-name="Ellipse 294" cx="13.244" cy="13.244" r="13.244" transform="translate(439.912 18.73) rotate(-45)" fill="#e0157d"/>
        <path id="Path_14364" data-name="Path 14364" d="M221.221,383.423a11.6,11.6,0,1,0-12.683,10.4A11.6,11.6,0,0,0,221.221,383.423Z" transform="translate(-9.627 60.655)" fill="#49be55"/>
        <ellipse id="Ellipse_295" data-name="Ellipse 295" cx="19.239" cy="19.239" rx="19.239" ry="19.239" transform="matrix(0.185, -0.983, 0.983, 0.185, 0, 233.427)" fill="#0c6096"/>
      </g>
      <g id="Group_5811" data-name="Group 5811" transform="translate(68.63 127.521)">
        <path id="Path_14365" data-name="Path 14365" d="M108.311,177.409a9.288,9.288,0,1,0-9.288,9.288A9.288,9.288,0,0,0,108.311,177.409Z" transform="translate(-89.735 -117.946)" fill="none" stroke="#a215eb" stroke-miterlimit="10" stroke-width="1"/>
        <path id="Path_14366" data-name="Path 14366" d="M404.034,385.93a9.289,9.289,0,1,0-9.29,9.288A9.289,9.289,0,0,0,404.034,385.93Z" transform="translate(103.541 18.338)" fill="none" stroke="#a215eb" stroke-miterlimit="10" stroke-width="1"/>
        <ellipse id="Ellipse_296" data-name="Ellipse 296" cx="5.326" cy="5.326" rx="5.326" ry="5.326" transform="translate(470.191)" fill="none" stroke="#a215eb" stroke-miterlimit="10" stroke-width="1"/>
        <ellipse id="Ellipse_297" data-name="Ellipse 297" cx="5.326" cy="5.326" rx="5.326" ry="5.326" transform="translate(57.532 417.719)" fill="none" stroke="#a215eb" stroke-miterlimit="10" stroke-width="1"/>
        <ellipse id="Ellipse_298" data-name="Ellipse 298" cx="5.326" cy="5.326" rx="5.326" ry="5.326" transform="translate(66.658 177.274)" fill="none" stroke="#a215eb" stroke-miterlimit="10" stroke-width="1"/>
        <ellipse id="Ellipse_299" data-name="Ellipse 299" cx="5.326" cy="5.326" rx="5.326" ry="5.326" transform="translate(462.852 196.796)" fill="none" stroke="#a215eb" stroke-miterlimit="10" stroke-width="1"/>
      </g>
    </g>
    <g id="Group_5818" data-name="Group 5818" transform="translate(1364.588 7099.023)">
      <g id="Group_5814" data-name="Group 5814" transform="translate(20.042 0)">
        <path id="Path_14367" data-name="Path 14367" d="M318.427,74.961V261.154a30.657,30.657,0,0,0-8,4.413,34.576,34.576,0,0,1-13.948,2.461,6.186,6.186,0,0,1-.663-.012,48.009,48.009,0,0,1-17.177-4.01,7.882,7.882,0,0,0-4.543-.556c-6.1,1.053-9.086,4.626-10.517,8.222a19.766,19.766,0,0,0-1.207,8.624,24.361,24.361,0,0,0,5.584,12.978c11.664,14.35,37.135,18.644,37.135,18.644s19.484,5.986,10.765,40.329a8.877,8.877,0,0,0-.237,1.479s-6.4,9.511-11.31,25.068H181.021a5.252,5.252,0,0,1-5.111-4.046,4.935,4.935,0,0,1-.142-1.195V74.961a5.246,5.246,0,0,1,5.253-5.241H313.186A5.243,5.243,0,0,1,318.427,74.961Z" transform="translate(-167.489 -50.115)" fill="#ffc749"/>
        <path id="Path_14368" data-name="Path 14368" d="M318.427,74.961v28.085L175.768,229.3V173.15L292.625,69.72h20.561A5.243,5.243,0,0,1,318.427,74.961Z" transform="translate(-167.489 -50.115)" fill="#ffae21"/>
        <path id="Path_14369" data-name="Path 14369" d="M318.427,135.22v101.4L296.482,256.04,267.96,281.286,175.91,362.76a4.935,4.935,0,0,1-.142-1.195V261.482Z" transform="translate(-167.489 -38.128)" fill="#ffae21"/>
        <path id="Path_14370" data-name="Path 14370" d="M327.991,66.682V263a18.25,18.25,0,0,0-8.281,1.183V77.991a5.243,5.243,0,0,0-5.241-5.241H182.3a5.246,5.246,0,0,0-5.253,5.241V376.582a5.253,5.253,0,0,0,5.253,5.241H305.6a122.447,122.447,0,0,0-3.821,15.687H182.3a13.531,13.531,0,0,1-13.534-13.534V66.682A13.531,13.531,0,0,1,182.3,53.148H314.469A13.528,13.528,0,0,1,327.991,66.682ZM217.817,64.493a2.076,2.076,0,1,0-2.07,2.07A2.083,2.083,0,0,0,217.817,64.493Z" transform="translate(-168.77 -53.148)" fill="#3d2772"/>
        <path id="Path_14371" data-name="Path 14371" d="M208.8,60.978a2.076,2.076,0,1,1-2.082,2.082A2.083,2.083,0,0,1,208.8,60.978Z" transform="translate(-161.825 -51.715)" fill="#e84343"/>
        <g id="Group_5813" data-name="Group 5813" transform="translate(28.271 7.607)">
          <ellipse id="Ellipse_300" data-name="Ellipse 300" cx="3.738" cy="3.738" rx="3.738" ry="3.738" transform="translate(74.766)" fill="#5c35d8"/>
          <path id="Path_14372" data-name="Path 14372" d="M249.523,60.628a2.489,2.489,0,0,1,2.5,2.5,2.42,2.42,0,0,1-.733,1.751,2.5,2.5,0,0,1-1.763.733H226.052a2.484,2.484,0,0,1-1.751-4.247,2.42,2.42,0,0,1,1.751-.733Z" transform="translate(-187.013 -59.386)"/>
          <path id="Path_14373" data-name="Path 14373" d="M212.89,60.978a2.076,2.076,0,1,1-2.082,2.082A2.085,2.085,0,0,1,212.89,60.978Z" transform="translate(-189.348 -59.322)" fill="#5c35d8"/>
          <ellipse id="Ellipse_301" data-name="Ellipse 301" cx="3.738" cy="3.738" rx="3.738" ry="3.738" fill="#fff"/>
        </g>
      </g>
      <rect id="Rectangle_867" data-name="Rectangle 867" width="154.903" height="244.099" rx="15.661" transform="translate(56.488 45.149)" fill="#ffc749" style="mix-blend-mode: multiply;isolation: isolate"/>
      <rect id="Rectangle_868" data-name="Rectangle 868" width="154.903" height="244.099" rx="15.661" transform="translate(60.672 40.964)" fill="#ffc749" style="mix-blend-mode: multiply;isolation: isolate"/>
      <g id="Group_5817" data-name="Group 5817" transform="translate(0 142.659)">
        <g id="Group_5815" data-name="Group 5815" transform="translate(0 0)">
          <path id="Path_14374" data-name="Path 14374" d="M171.2,295.978v29.906c-7.287,3.253-11.534.26-13.273-1.526a6.089,6.089,0,0,1-1.254-1.881C150.493,307.713,171.2,295.978,171.2,295.978Z" transform="translate(-151.153 -151.367)" fill="#cf7f4c"/>
          <path id="Path_14375" data-name="Path 14375" d="M171.862,250.768v40.506c-7.536,5.69-13.628,1.088-16.231-1.609a12.254,12.254,0,0,1-2.177-3.088C145.209,269.862,171.862,250.768,171.862,250.768Z" transform="translate(-151.82 -159.641)" fill="#cf7f4c"/>
          <path id="Path_14376" data-name="Path 14376" d="M171.87,213.118v37.336c-11.96,4.081-18.017-7.275-18.017-7.275C144.259,222.511,171.87,213.118,171.87,213.118Z" transform="translate(-151.828 -166.531)" fill="#cf7f4c"/>
          <path id="Path_14377" data-name="Path 14377" d="M170.8,173.738v32.426c-8.458-4.07-15.9-11.617-12.161-21.625C160.347,179.961,165.54,174.531,170.8,173.738Z" transform="translate(-150.762 -173.738)" fill="#cf7f4c"/>
        </g>
        <g id="Group_5816" data-name="Group 5816" transform="translate(96.63 66.313)">
          <path id="Path_14378" data-name="Path 14378" d="M294.529,282.5s-40.068-6.755-42.718-31.622a19.765,19.765,0,0,1,1.207-8.624c.166.26.331.544.5.816,2.756,4.555,6.116,7.086,11.416,8.044a16.961,16.961,0,0,0,15.344-4.424,19.219,19.219,0,0,0,4.98-8.092,34.987,34.987,0,0,0,14.61-2.449,30.655,30.655,0,0,1,8-4.413,18.251,18.251,0,0,1,8.281-1.183,13.348,13.348,0,0,1,8.8,4.874s1.8,2.331,4.543,6.436c0,0,17.639,1.053,24.855,33.183a148.645,148.645,0,0,0,11.25,30.178s7.063,8.257,4.058,51.2c0,0,.035,50.68,23.518,85.792,2.354,3.514,4.649,7.086,6.7,10.789l39.51,59.389H312.45s-6.362-19.3-22.392-43.5a14.173,14.173,0,0,0-1.384-1.763c-5.832-6.388-44.871-50.692-55.164-102.07h56.418a122.447,122.447,0,0,1,3.821-15.687c4.909-15.557,11.31-25.068,11.31-25.068a8.868,8.868,0,0,1,.237-1.479C314.014,288.484,294.529,282.5,294.529,282.5Z" transform="translate(-233.51 -229.67)" fill="#cf7f4c"/>
          <path id="Path_14379" data-name="Path 14379" d="M282.237,238.063a19.218,19.218,0,0,1-4.98,8.092,16.961,16.961,0,0,1-15.344,4.424c-5.3-.958-8.66-3.49-11.416-8.044-.166-.272-.331-.556-.5-.816,1.431-3.6,4.413-7.169,10.517-8.222a7.882,7.882,0,0,1,4.543.556A48.009,48.009,0,0,0,282.237,238.063Z" transform="translate(-230.492 -229.136)" fill="#fca677"/>
          <path id="Path_14380" data-name="Path 14380" d="M251.175,254.9a34.236,34.236,0,0,0,3.674,4.646,39.905,39.905,0,0,0,4.374,3.91,57.67,57.67,0,0,0,10.011,6.059,90.843,90.843,0,0,0,10.9,4.377A103.355,103.355,0,0,0,291.469,277l-.489.034,1.187-.457.6-.225c.19-.091.367-.2.552-.305l1.1-.626.989-.793a12.989,12.989,0,0,0,3.041-4.125,20.381,20.381,0,0,0,1.478-5.124,26.594,26.594,0,0,0,.3-5.455,21.724,21.724,0,0,1,.5,5.531,19.047,19.047,0,0,1-1.007,5.564,12.861,12.861,0,0,1-8.1,8l-.2.081-.285-.046A79.388,79.388,0,0,1,279.4,276.13a72.212,72.212,0,0,1-11.132-4.7,47.635,47.635,0,0,1-9.969-6.871A28.374,28.374,0,0,1,251.175,254.9Z" transform="translate(-230.277 -225.197)" fill="#723a24"/>
          <path id="Path_14381" data-name="Path 14381" d="M340.268,284.454c-2.606-6.454-5.521-12.733-8.65-18.895-3.178-6.136-6.554-12.165-10.222-18.012-.909-1.467-1.825-2.93-2.773-4.371s-1.958-2.812-2.918-4.234a23.168,23.168,0,0,0-3.031-3.986,12.981,12.981,0,0,0-4-2.658,15.251,15.251,0,0,0-9.724-.284,31.794,31.794,0,0,0-9.35,4.256,28.807,28.807,0,0,1,9.009-5.365,16,16,0,0,1,10.723-.334,13.853,13.853,0,0,1,4.755,2.865,11.879,11.879,0,0,1,1.856,2.032L317.5,237.6c1.026,1.426,2.068,2.853,3.053,4.3s1.921,2.92,2.851,4.4a161.212,161.212,0,0,1,9.875,18.466c1.434,3.183,2.735,6.425,3.931,9.7C338.339,277.763,339.422,281.076,340.268,284.454Z" transform="translate(-223.245 -229.792)" fill="#723a24"/>
          <path id="Path_14382" data-name="Path 14382" d="M306.7,333.172a25.309,25.309,0,0,1-7.13-4.863,16.96,16.96,0,0,1-4.521-7.6,13.681,13.681,0,0,1-.463-4.545c.027-.385.07-.77.136-1.163l.222-1.118.4-2.066c.238-1.382.629-2.736.786-4.128l.523-4.165c.146-1.388.155-2.78.24-4.171l.052-1.043-.054-1.037-.1-2.077-.038-1.04-.146-1.024-.3-2.05a14.172,14.172,0,0,0-.455-2.013c-.176-.664-.314-1.345-.522-2a25.175,25.175,0,0,0-3.827-7.286,18.617,18.617,0,0,0-6.424-5.333,16.7,16.7,0,0,1,7.3,4.569,23.825,23.825,0,0,1,4.688,7.423c2.144,5.529,2.414,11.539,1.937,17.307l-.6,4.311a19.156,19.156,0,0,1-.406,2.133l-.48,2.119-.5,2.112-.233.971c-.065.308-.114.629-.15.955a13.447,13.447,0,0,0,.194,3.941,16.741,16.741,0,0,0,3.588,7.244A30.981,30.981,0,0,0,306.7,333.172Z" transform="translate(-224.071 -221.62)" fill="#723a24"/>
          <path id="Path_14383" data-name="Path 14383" d="M282.034,391.285a90.314,90.314,0,0,1-3.021-21.036,101.982,101.982,0,0,1,1.678-21.278c.671-3.5,1.486-6.973,2.471-10.4,1.014-3.413,2.151-6.794,3.49-10.089a87.142,87.142,0,0,1,10.087-18.7,103.259,103.259,0,0,0-4.563,9.53c-1.391,3.227-2.645,6.505-3.8,9.815a140.552,140.552,0,0,0-5.366,20.271,128.842,128.842,0,0,0-2.164,20.84A140.023,140.023,0,0,0,282.034,391.285Z" transform="translate(-225.191 -215.153)" fill="#723a24"/>
        </g>
      </g>
    </g>
  </g>
</svg>
