<svg id="Group_5639" data-name="Group 5639" xmlns="http://www.w3.org/2000/svg" width="454.933" height="335.671" viewBox="0 0 454.933 335.671">
  <g id="Group_5636" data-name="Group 5636" transform="translate(0 0)">
    <g id="Group_5635" data-name="Group 5635">
      <g id="Group_5633" data-name="Group 5633">
        <g id="Rectangle_850" data-name="Rectangle 850" transform="translate(0)" fill="#374c6d" stroke="#374c6d" stroke-width="1">
          <rect width="454.933" height="335.671" rx="5.375" stroke="none"/>
          <rect x="0.5" y="0.5" width="453.933" height="334.671" rx="4.875" fill="none"/>
        </g>
        <g id="Group_5632" data-name="Group 5632" transform="translate(0 0)">
          <g id="Path_12875" data-name="Path 12875" transform="translate(-136.198 -88.31)" fill="#fff">
            <path d="M 590.6304321289063 110.3238677978516 L 136.697998046875 110.3238677978516 L 136.697998046875 94.87959289550781 C 136.697998046875 93.26575469970703 137.3313751220703 91.74359130859375 138.4814910888672 90.59348297119141 C 139.6316070556641 89.44336700439453 141.1537780761719 88.80998229980469 142.7676086425781 88.80998229980469 L 584.56201171875 88.80998229980469 C 586.17578125 88.80998229980469 587.69775390625 89.44336700439453 588.8475341796875 90.59342193603516 C 589.9972534179688 91.74347686767578 590.6304321289063 93.26564788818359 590.6304321289063 94.87959289550781 L 590.6304321289063 110.3238677978516 Z" stroke="none"/>
            <path d="M 142.767578125 89.30998229980469 C 141.2872924804688 89.30998229980469 139.8906860351563 89.89133453369141 138.8349609375 90.94704437255859 C 137.7793579101563 92.00269317626953 137.197998046875 93.39927673339844 137.197998046875 94.87957000732422 L 137.197998046875 109.8238677978516 L 590.1304321289063 109.8238677978516 L 590.1304321289063 94.87957000732422 C 590.1304321289063 93.39916229248047 589.5492553710938 92.00251007080078 588.493896484375 90.94692230224609 C 587.4385986328125 89.89133453369141 586.042236328125 89.30998229980469 584.56201171875 89.30998229980469 L 142.767578125 89.30998229980469 M 142.767578125 88.30998229980469 L 584.56201171875 88.30998229980469 C 588.1751098632813 88.30998229980469 591.1304321289063 91.26663208007813 591.1304321289063 94.87957000732422 L 591.1304321289063 110.8238677978516 L 136.197998046875 110.8238677978516 L 136.197998046875 94.87957000732422 C 136.197998046875 91.26663208007813 139.154541015625 88.30998229980469 142.767578125 88.30998229980469 Z" stroke="none" fill="#374c6d"/>
          </g>
        </g>
      </g>
      <g id="Group_5634" data-name="Group 5634" transform="translate(16.223 6.175)">
        <g id="Path_12876" data-name="Path 12876" transform="translate(-149.471 -93.362)" fill="#6387c1">
          <path d="M 154.4060668945313 102.7341461181641 L 154.3877258300781 102.7341079711914 C 151.9414978027344 102.72314453125 149.9600677490234 100.72509765625 149.9709930419922 98.28014373779297 C 149.9808807373047 95.84385681152344 151.9702758789063 93.86195373535156 154.4057159423828 93.86195373535156 L 154.4240112304688 93.86199188232422 C 156.8699340820313 93.87186431884766 158.8517913818359 95.87002563476563 158.8419189453125 98.31621551513672 C 158.8320922851563 100.7522735595703 156.8421783447266 102.7341461181641 154.4060668945313 102.7341461181641 Z" stroke="none"/>
          <path d="M 154.4060668945313 102.2341461181641 C 156.5675811767578 102.2341461181641 158.3332061767578 100.4756622314453 158.3419342041016 98.31419372558594 C 158.3506927490234 96.14370727539063 156.5922088623047 94.37074279785156 154.421630859375 94.36198425292969 L 154.4057159423828 94.36195373535156 C 152.244873046875 94.36195373535156 150.4797515869141 96.12046813964844 150.4709930419922 98.28237152099609 C 150.4613037109375 100.4516448974609 152.2194366455078 102.2243881225586 154.3900909423828 102.2341156005859 L 154.4060668945313 102.2341461181641 M 154.4060668945313 103.2341461181641 C 154.3992462158203 103.2341461181641 154.3925170898438 103.234130859375 154.3856964111328 103.2341079711914 C 151.6600799560547 103.2218856811523 149.4588165283203 101.0035018920898 149.4710083007813 98.27790832519531 C 149.4820251464844 95.55910491943359 151.689453125 93.36195373535156 154.4057159423828 93.36195373535156 C 154.4125213623047 93.36195373535156 154.4192047119141 93.36196899414063 154.426025390625 93.36199188232422 C 157.1528625488281 93.37300872802734 159.3529205322266 95.59261322021484 159.3419189453125 98.3182373046875 C 159.3309478759766 101.0370330810547 157.12353515625 103.2341461181641 154.4060668945313 103.2341461181641 Z" stroke="none" fill="#374c6d"/>
        </g>
        <g id="Path_12877" data-name="Path 12877" transform="translate(-146.679 -93.35)" fill="#6387c1">
          <path d="M 166.9701538085938 102.7849426269531 L 166.9518737792969 102.7849044799805 C 164.5059814453125 102.775032043457 162.5241241455078 100.7768707275391 162.5339813232422 98.33068084716797 C 162.5438232421875 95.89530181884766 164.5327453613281 93.91396331787109 166.9676208496094 93.91396331787109 L 166.9879608154297 93.91400146484375 C 168.1729736328125 93.91876983642578 169.2849426269531 94.38459014892578 170.1192626953125 95.22563934326172 C 170.9536285400391 96.06674194335938 171.4102020263672 97.18227386474609 171.4049224853516 98.36675262451172 C 171.3950500488281 100.8030548095703 169.4056396484375 102.7849426269531 166.9701538085938 102.7849426269531 Z" stroke="none"/>
          <path d="M 166.9701538085938 102.2849426269531 C 169.1310424804688 102.2849426269531 170.8961791992188 100.5264434814453 170.9049224853516 98.36452484130859 C 170.9096221923828 97.31368255615234 170.5045318603516 96.32398986816406 169.7642822265625 95.57777404785156 C 169.0240325927734 94.83154296875 168.0374145507813 94.41822814941406 166.9862823486328 94.41400146484375 L 166.9676208496094 94.41396331787109 C 164.8073425292969 94.41396331787109 163.0427093505859 96.17191314697266 163.0339660644531 98.33270263671875 C 163.0252227783203 100.5031890869141 164.78369140625 102.2761535644531 166.9542541503906 102.284912109375 L 166.9701538085938 102.2849426269531 M 166.9701538085938 103.2849426269531 C 166.9633331298828 103.2849426269531 166.9566802978516 103.2849273681641 166.9498596191406 103.2849044799805 C 164.2230377197266 103.2738876342773 162.0229949951172 101.0555038452148 162.0339813232422 98.32867431640625 C 162.0449676513672 95.61069488525391 164.2525024414063 93.41396331787109 166.9676208496094 93.41396331787109 C 166.9752655029297 93.41396331787109 166.9825592041016 93.41397857666016 166.9902038574219 93.41400909423828 C 169.7158203125 93.42498016357422 171.9170989990234 95.64339447021484 171.9049072265625 98.36898803710938 C 171.8939056396484 101.088996887207 169.6864318847656 103.2849426269531 166.9701538085938 103.2849426269531 Z" stroke="none" fill="#374c6d"/>
        </g>
        <g id="Path_12878" data-name="Path 12878" transform="translate(-143.887 -93.339)" fill="#6387c1">
          <path d="M 179.5332336425781 102.8371734619141 L 179.5149078369141 102.8371353149414 C 177.0690765380859 102.8261489868164 175.0871124267578 100.827995300293 175.0970153808594 98.38292694091797 C 175.1078948974609 95.94694519042969 177.0978088378906 93.9649658203125 179.5328674316406 93.9649658203125 L 179.5511932373047 93.96500396728516 C 181.9971008300781 93.97488403320313 183.9789733886719 95.97303771972656 183.9691162109375 98.41921997070313 C 183.9592742919922 100.8552856445313 181.9693450927734 102.8371734619141 179.5332336425781 102.8371734619141 Z" stroke="none"/>
          <path d="M 179.5332336425781 102.3371734619141 C 181.6947479248047 102.3371734619141 183.4603881835938 100.5786743164063 183.4691314697266 98.41719818115234 C 183.4778747558594 96.24671936035156 181.7193908691406 94.47377014160156 179.5488128662109 94.46499633789063 L 179.5328674316406 94.4649658203125 C 177.3722839355469 94.4649658203125 175.6066589355469 96.22364807128906 175.5970153808594 98.38494873046875 C 175.5882263183594 100.5544509887695 177.3468933105469 102.3274002075195 179.5172882080078 102.3371505737305 L 179.5332336425781 102.3371734619141 M 179.5332336425781 103.3371810913086 C 179.5264129638672 103.3371810913086 179.5197143554688 103.3371658325195 179.5128936767578 103.3371353149414 C 176.7872924804688 103.3248901367188 174.5859832763672 101.1065139770508 174.5970153808594 98.38089752197266 C 174.6091613769531 95.662109375 176.8166198730469 93.4649658203125 179.5328674316406 93.4649658203125 C 179.5396881103516 93.4649658203125 179.54638671875 93.46498107910156 179.5532073974609 93.46500396728516 C 182.2788238525391 93.47602081298828 184.4801025390625 95.69561004638672 184.4691162109375 98.42122650146484 C 184.4581298828125 101.1400299072266 182.2494964599609 103.3371810913086 179.5332336425781 103.3371810913086 Z" stroke="none" fill="#374c6d"/>
        </g>
      </g>
    </g>
  </g>
  <g id="Group_5638" data-name="Group 5638" transform="translate(35.409 43.777)">
    <g id="Rectangle_851" data-name="Rectangle 851" fill="#4a73af" stroke="#374c6d" stroke-width="1">
      <rect width="384.115" height="92.498" stroke="none"/>
      <rect x="0.5" y="0.5" width="383.115" height="91.498" fill="none"/>
    </g>
    <g id="Group_5637" data-name="Group 5637" transform="translate(0 108.566)">
      <g id="Rectangle_852" data-name="Rectangle 852" fill="#4a73af" stroke="#374c6d" stroke-width="1">
        <rect width="85.889" height="54.491" stroke="none"/>
        <rect x="0.5" y="0.5" width="84.889" height="53.491" fill="none"/>
      </g>
      <g id="Rectangle_853" data-name="Rectangle 853" transform="translate(0 88.216)" fill="#4a73af" stroke="#374c6d" stroke-width="1">
        <rect width="382.505" height="7.601" stroke="none"/>
        <rect x="0.5" y="0.5" width="381.505" height="6.601" fill="none"/>
      </g>
      <g id="Rectangle_854" data-name="Rectangle 854" transform="translate(0 133.595)" fill="#4a73af" stroke="#374c6d" stroke-width="1">
        <rect width="382.505" height="7.601" stroke="none"/>
        <rect x="0.5" y="0.5" width="381.505" height="6.601" fill="none"/>
      </g>
      <g id="Rectangle_855" data-name="Rectangle 855" transform="translate(0 152.055)" fill="#4a73af" stroke="#374c6d" stroke-width="1">
        <rect width="382.505" height="7.6" stroke="none"/>
        <rect x="0.5" y="0.5" width="381.505" height="6.6" fill="none"/>
      </g>
      <g id="Rectangle_856" data-name="Rectangle 856" transform="translate(0 68.988)" fill="#4a73af" stroke="#374c6d" stroke-width="1">
        <rect width="382.505" height="7.6" stroke="none"/>
        <rect x="0.5" y="0.5" width="381.505" height="6.6" fill="none"/>
      </g>
      <g id="Rectangle_857" data-name="Rectangle 857" transform="translate(99.144)" fill="#4a73af" stroke="#374c6d" stroke-width="1">
        <rect width="85.889" height="54.491" stroke="none"/>
        <rect x="0.5" y="0.5" width="84.889" height="53.491" fill="none"/>
      </g>
      <g id="Rectangle_858" data-name="Rectangle 858" transform="translate(198.287)" fill="#4a73af" stroke="#374c6d" stroke-width="1">
        <rect width="85.889" height="54.491" stroke="none"/>
        <rect x="0.5" y="0.5" width="84.889" height="53.491" fill="none"/>
      </g>
      <g id="Rectangle_859" data-name="Rectangle 859" transform="translate(297.431)" fill="#4a73af" stroke="#374c6d" stroke-width="1">
        <rect width="85.889" height="54.491" stroke="none"/>
        <rect x="0.5" y="0.5" width="84.889" height="53.491" fill="none"/>
      </g>
    </g>
  </g>
</svg>
