<svg xmlns="http://www.w3.org/2000/svg" xmlns:xlink="http://www.w3.org/1999/xlink" width="716.982" height="714" viewBox="0 0 716.982 714">
  <defs>
    <linearGradient id="linear-gradient" x1="0.5" x2="0.5" y2="1" gradientUnits="objectBoundingBox">
      <stop offset="0" stop-color="#00c9ff"/>
      <stop offset="1" stop-color="#92fe9d"/>
    </linearGradient>
  </defs>
  <g id="Group_5720" data-name="Group 5720" transform="translate(-169 -3515)">
    <g id="Group_5640" data-name="Group 5640" transform="translate(169 3890.635)">
      <g id="Group_5635" data-name="Group 5635" transform="translate(0 0)">
        <g id="Group_5633" data-name="Group 5633">
          <rect id="Rectangle_850" data-name="Rectangle 850" width="372.946" height="224.866" rx="5.375" fill="#0b5e94"/>
        </g>
        <g id="Group_5634" data-name="Group 5634" transform="translate(19.689 9.474)">
          <path id="Path_12876" data-name="Path 12876" d="M155.138,96.207a2.833,2.833,0,1,1-2.822-2.845A2.834,2.834,0,0,1,155.138,96.207Z" transform="translate(-149.471 -93.362)" fill="url(#linear-gradient)"/>
          <path id="Path_12877" data-name="Path 12877" d="M167.7,96.259a2.833,2.833,0,1,1-2.821-2.845A2.833,2.833,0,0,1,167.7,96.259Z" transform="translate(-153.219 -93.377)" fill="url(#linear-gradient)"/>
          <path id="Path_12878" data-name="Path 12878" d="M180.264,96.31a2.834,2.834,0,1,1-2.822-2.845A2.834,2.834,0,0,1,180.264,96.31Z" transform="translate(-156.967 -93.393)" fill="url(#linear-gradient)"/>
        </g>
      </g>
      <g id="Group_5638" data-name="Group 5638" transform="translate(20.327 26.066)">
        <rect id="Rectangle_851" data-name="Rectangle 851" width="332.291" height="53.101" fill="#dfe3e9"/>
        <g id="Group_5637" data-name="Group 5637" transform="translate(0 62.325)">
          <rect id="Rectangle_852" data-name="Rectangle 852" width="49.307" height="31.282" fill="#dfe3e9"/>
          <rect id="Rectangle_853" data-name="Rectangle 853" width="331.367" height="4.363" transform="translate(0 50.643)" fill="#dfe3e9"/>
          <rect id="Rectangle_854" data-name="Rectangle 854" width="331.367" height="4.363" transform="translate(0 76.694)" fill="#dfe3e9"/>
          <rect id="Rectangle_855" data-name="Rectangle 855" width="331.367" height="4.363" transform="translate(0 87.291)" fill="#dfe3e9"/>
          <rect id="Rectangle_856" data-name="Rectangle 856" width="331.367" height="4.363" transform="translate(0 39.604)" fill="#dfe3e9"/>
          <rect id="Rectangle_857" data-name="Rectangle 857" width="49.307" height="31.282" transform="translate(94.176)" fill="#dfe3e9"/>
          <rect id="Rectangle_858" data-name="Rectangle 858" width="49.307" height="31.282" transform="translate(188.352)" fill="#dfe3e9"/>
          <rect id="Rectangle_859" data-name="Rectangle 859" width="49.307" height="31.282" transform="translate(282.528)" fill="#dfe3e9"/>
        </g>
      </g>
    </g>
    <g id="Group_5639" data-name="Group 5639" transform="translate(265.346 3543.717)">
      <g id="Group_5636" data-name="Group 5636" transform="translate(0 0)">
        <g id="Group_5635-2" data-name="Group 5635">
          <g id="Group_5633-2" data-name="Group 5633">
            <g id="Rectangle_850-2" data-name="Rectangle 850" transform="translate(0)" fill="#374c6d" stroke="#374c6d" stroke-width="1">
              <rect width="454.933" height="335.671" rx="5.375" stroke="none"/>
              <rect x="0.5" y="0.5" width="453.933" height="334.671" rx="4.875" fill="none"/>
            </g>
            <g id="Group_5632" data-name="Group 5632" transform="translate(0 0)">
              <g id="Path_12875" data-name="Path 12875" transform="translate(-136.198 -88.31)" fill="#fff">
                <path d="M 590.6304321289063 110.3238677978516 L 136.697998046875 110.3238677978516 L 136.697998046875 94.87959289550781 C 136.697998046875 93.26575469970703 137.3313751220703 91.74359130859375 138.4814910888672 90.59348297119141 C 139.6316070556641 89.44336700439453 141.1537780761719 88.80998229980469 142.7676086425781 88.80998229980469 L 584.56201171875 88.80998229980469 C 586.17578125 88.80998229980469 587.69775390625 89.44336700439453 588.8475341796875 90.59342193603516 C 589.9972534179688 91.74347686767578 590.6304321289063 93.26564788818359 590.6304321289063 94.87959289550781 L 590.6304321289063 110.3238677978516 Z" stroke="none"/>
                <path d="M 142.767578125 89.30998229980469 C 141.2872924804688 89.30998229980469 139.8906860351563 89.89133453369141 138.8349609375 90.94704437255859 C 137.7793579101563 92.00269317626953 137.197998046875 93.39927673339844 137.197998046875 94.87957000732422 L 137.197998046875 109.8238677978516 L 590.1304321289063 109.8238677978516 L 590.1304321289063 94.87957000732422 C 590.1304321289063 93.39916229248047 589.5492553710938 92.00251007080078 588.493896484375 90.94692230224609 C 587.4385986328125 89.89133453369141 586.042236328125 89.30998229980469 584.56201171875 89.30998229980469 L 142.767578125 89.30998229980469 M 142.767578125 88.30998229980469 L 584.56201171875 88.30998229980469 C 588.1751098632813 88.30998229980469 591.1304321289063 91.26663208007813 591.1304321289063 94.87957000732422 L 591.1304321289063 110.8238677978516 L 136.197998046875 110.8238677978516 L 136.197998046875 94.87957000732422 C 136.197998046875 91.26663208007813 139.154541015625 88.30998229980469 142.767578125 88.30998229980469 Z" stroke="none" fill="#374c6d"/>
              </g>
            </g>
          </g>
          <g id="Group_5634-2" data-name="Group 5634" transform="translate(16.223 6.175)">
            <g id="Path_12876-2" data-name="Path 12876" transform="translate(-149.471 -93.362)" fill="#6387c1">
              <path d="M 154.4060668945313 102.7341461181641 L 154.3877258300781 102.7341079711914 C 151.9414978027344 102.72314453125 149.9600677490234 100.72509765625 149.9709930419922 98.28014373779297 C 149.9808807373047 95.84385681152344 151.9702758789063 93.86195373535156 154.4057159423828 93.86195373535156 L 154.4240112304688 93.86199188232422 C 156.8699340820313 93.87186431884766 158.8517913818359 95.87002563476563 158.8419189453125 98.31621551513672 C 158.8320922851563 100.7522735595703 156.8421783447266 102.7341461181641 154.4060668945313 102.7341461181641 Z" stroke="none"/>
              <path d="M 154.4060668945313 102.2341461181641 C 156.5675811767578 102.2341461181641 158.3332061767578 100.4756622314453 158.3419342041016 98.31419372558594 C 158.3506927490234 96.14370727539063 156.5922088623047 94.37074279785156 154.421630859375 94.36198425292969 L 154.4057159423828 94.36195373535156 C 152.244873046875 94.36195373535156 150.4797515869141 96.12046813964844 150.4709930419922 98.28237152099609 C 150.4613037109375 100.4516448974609 152.2194366455078 102.2243881225586 154.3900909423828 102.2341156005859 L 154.4060668945313 102.2341461181641 M 154.4060668945313 103.2341461181641 C 154.3992462158203 103.2341461181641 154.3925170898438 103.234130859375 154.3856964111328 103.2341079711914 C 151.6600799560547 103.2218856811523 149.4588165283203 101.0035018920898 149.4710083007813 98.27790832519531 C 149.4820251464844 95.55910491943359 151.689453125 93.36195373535156 154.4057159423828 93.36195373535156 C 154.4125213623047 93.36195373535156 154.4192047119141 93.36196899414063 154.426025390625 93.36199188232422 C 157.1528625488281 93.37300872802734 159.3529205322266 95.59261322021484 159.3419189453125 98.3182373046875 C 159.3309478759766 101.0370330810547 157.12353515625 103.2341461181641 154.4060668945313 103.2341461181641 Z" stroke="none" fill="#374c6d"/>
            </g>
            <g id="Path_12877-2" data-name="Path 12877" transform="translate(-146.679 -93.35)" fill="#6387c1">
              <path d="M 166.9701538085938 102.7849426269531 L 166.9518737792969 102.7849044799805 C 164.5059814453125 102.775032043457 162.5241241455078 100.7768707275391 162.5339813232422 98.33068084716797 C 162.5438232421875 95.89530181884766 164.5327453613281 93.91396331787109 166.9676208496094 93.91396331787109 L 166.9879608154297 93.91400146484375 C 168.1729736328125 93.91876983642578 169.2849426269531 94.38459014892578 170.1192626953125 95.22563934326172 C 170.9536285400391 96.06674194335938 171.4102020263672 97.18227386474609 171.4049224853516 98.36675262451172 C 171.3950500488281 100.8030548095703 169.4056396484375 102.7849426269531 166.9701538085938 102.7849426269531 Z" stroke="none"/>
              <path d="M 166.9701538085938 102.2849426269531 C 169.1310424804688 102.2849426269531 170.8961791992188 100.5264434814453 170.9049224853516 98.36452484130859 C 170.9096221923828 97.31368255615234 170.5045318603516 96.32398986816406 169.7642822265625 95.57777404785156 C 169.0240325927734 94.83154296875 168.0374145507813 94.41822814941406 166.9862823486328 94.41400146484375 L 166.9676208496094 94.41396331787109 C 164.8073425292969 94.41396331787109 163.0427093505859 96.17191314697266 163.0339660644531 98.33270263671875 C 163.0252227783203 100.5031890869141 164.78369140625 102.2761535644531 166.9542541503906 102.284912109375 L 166.9701538085938 102.2849426269531 M 166.9701538085938 103.2849426269531 C 166.9633331298828 103.2849426269531 166.9566802978516 103.2849273681641 166.9498596191406 103.2849044799805 C 164.2230377197266 103.2738876342773 162.0229949951172 101.0555038452148 162.0339813232422 98.32867431640625 C 162.0449676513672 95.61069488525391 164.2525024414063 93.41396331787109 166.9676208496094 93.41396331787109 C 166.9752655029297 93.41396331787109 166.9825592041016 93.41397857666016 166.9902038574219 93.41400909423828 C 169.7158203125 93.42498016357422 171.9170989990234 95.64339447021484 171.9049072265625 98.36898803710938 C 171.8939056396484 101.088996887207 169.6864318847656 103.2849426269531 166.9701538085938 103.2849426269531 Z" stroke="none" fill="#374c6d"/>
            </g>
            <g id="Path_12878-2" data-name="Path 12878" transform="translate(-143.887 -93.339)" fill="#6387c1">
              <path d="M 179.5332336425781 102.8371734619141 L 179.5149078369141 102.8371353149414 C 177.0690765380859 102.8261489868164 175.0871124267578 100.827995300293 175.0970153808594 98.38292694091797 C 175.1078948974609 95.94694519042969 177.0978088378906 93.9649658203125 179.5328674316406 93.9649658203125 L 179.5511932373047 93.96500396728516 C 181.9971008300781 93.97488403320313 183.9789733886719 95.97303771972656 183.9691162109375 98.41921997070313 C 183.9592742919922 100.8552856445313 181.9693450927734 102.8371734619141 179.5332336425781 102.8371734619141 Z" stroke="none"/>
              <path d="M 179.5332336425781 102.3371734619141 C 181.6947479248047 102.3371734619141 183.4603881835938 100.5786743164063 183.4691314697266 98.41719818115234 C 183.4778747558594 96.24671936035156 181.7193908691406 94.47377014160156 179.5488128662109 94.46499633789063 L 179.5328674316406 94.4649658203125 C 177.3722839355469 94.4649658203125 175.6066589355469 96.22364807128906 175.5970153808594 98.38494873046875 C 175.5882263183594 100.5544509887695 177.3468933105469 102.3274002075195 179.5172882080078 102.3371505737305 L 179.5332336425781 102.3371734619141 M 179.5332336425781 103.3371810913086 C 179.5264129638672 103.3371810913086 179.5197143554688 103.3371658325195 179.5128936767578 103.3371353149414 C 176.7872924804688 103.3248901367188 174.5859832763672 101.1065139770508 174.5970153808594 98.38089752197266 C 174.6091613769531 95.662109375 176.8166198730469 93.4649658203125 179.5328674316406 93.4649658203125 C 179.5396881103516 93.4649658203125 179.54638671875 93.46498107910156 179.5532073974609 93.46500396728516 C 182.2788238525391 93.47602081298828 184.4801025390625 95.69561004638672 184.4691162109375 98.42122650146484 C 184.4581298828125 101.1400299072266 182.2494964599609 103.3371810913086 179.5332336425781 103.3371810913086 Z" stroke="none" fill="#374c6d"/>
            </g>
          </g>
        </g>
      </g>
      <g id="Group_5638-2" data-name="Group 5638" transform="translate(35.409 43.777)">
        <g id="Rectangle_851-2" data-name="Rectangle 851" fill="#4a73af" stroke="#374c6d" stroke-width="1">
          <rect width="384.115" height="92.498" stroke="none"/>
          <rect x="0.5" y="0.5" width="383.115" height="91.498" fill="none"/>
        </g>
        <g id="Group_5637-2" data-name="Group 5637" transform="translate(0 108.566)">
          <g id="Rectangle_852-2" data-name="Rectangle 852" fill="#4a73af" stroke="#374c6d" stroke-width="1">
            <rect width="85.889" height="54.491" stroke="none"/>
            <rect x="0.5" y="0.5" width="84.889" height="53.491" fill="none"/>
          </g>
          <g id="Rectangle_853-2" data-name="Rectangle 853" transform="translate(0 88.216)" fill="#4a73af" stroke="#374c6d" stroke-width="1">
            <rect width="382.505" height="7.601" stroke="none"/>
            <rect x="0.5" y="0.5" width="381.505" height="6.601" fill="none"/>
          </g>
          <g id="Rectangle_854-2" data-name="Rectangle 854" transform="translate(0 133.595)" fill="#4a73af" stroke="#374c6d" stroke-width="1">
            <rect width="382.505" height="7.601" stroke="none"/>
            <rect x="0.5" y="0.5" width="381.505" height="6.601" fill="none"/>
          </g>
          <g id="Rectangle_855-2" data-name="Rectangle 855" transform="translate(0 152.055)" fill="#4a73af" stroke="#374c6d" stroke-width="1">
            <rect width="382.505" height="7.6" stroke="none"/>
            <rect x="0.5" y="0.5" width="381.505" height="6.6" fill="none"/>
          </g>
          <g id="Rectangle_856-2" data-name="Rectangle 856" transform="translate(0 68.988)" fill="#4a73af" stroke="#374c6d" stroke-width="1">
            <rect width="382.505" height="7.6" stroke="none"/>
            <rect x="0.5" y="0.5" width="381.505" height="6.6" fill="none"/>
          </g>
          <g id="Rectangle_857-2" data-name="Rectangle 857" transform="translate(99.144)" fill="#4a73af" stroke="#374c6d" stroke-width="1">
            <rect width="85.889" height="54.491" stroke="none"/>
            <rect x="0.5" y="0.5" width="84.889" height="53.491" fill="none"/>
          </g>
          <g id="Rectangle_858-2" data-name="Rectangle 858" transform="translate(198.287)" fill="#4a73af" stroke="#374c6d" stroke-width="1">
            <rect width="85.889" height="54.491" stroke="none"/>
            <rect x="0.5" y="0.5" width="84.889" height="53.491" fill="none"/>
          </g>
          <g id="Rectangle_859-2" data-name="Rectangle 859" transform="translate(297.431)" fill="#4a73af" stroke="#374c6d" stroke-width="1">
            <rect width="85.889" height="54.491" stroke="none"/>
            <rect x="0.5" y="0.5" width="84.889" height="53.491" fill="none"/>
          </g>
        </g>
      </g>
    </g>
    <g id="Group_5629" data-name="Group 5629" transform="translate(453.907 3639.066)">
      <g id="Group_5628" data-name="Group 5628" transform="translate(0 0)">
        <rect id="Rectangle_848" data-name="Rectangle 848" width="432.075" height="589.934" rx="28" fill="#272534"/>
        <text id="import_java.applet.Applet_import_java.awt.Color_import_java.awt.Font_import_java.awt.Graphics_import_java.awt.Label_import_java.awt.TextField_import_java.util.Calendar_import_java.util.GregorianCalendar_public_class_AppletLogo_extends_Applet_imp" data-name="import java.applet.Applet;
import java.awt.Color;
import java.awt.Font;
import java.awt.Graphics;
import java.awt.Label;
import java.awt.TextField;
import java.util.Calendar;
import java.util.GregorianCalendar;


public class AppletLogo extends Applet 
imp" transform="translate(32.609 46.477)" fill="#eaa219" font-size="15" font-family="Consolas"><tspan x="0" y="0">import java.applet.Applet;</tspan><tspan x="0" y="18">import java.awt.Color;</tspan><tspan x="0" y="36">import java.awt.Font;</tspan><tspan x="0" y="54">import java.awt.Graphics;</tspan><tspan x="0" y="72">import java.awt.Label;</tspan><tspan x="0" y="90">import java.awt.TextField;</tspan><tspan x="0" y="108">import java.util.Calendar;</tspan><tspan x="0" y="126">import java.util.GregorianCalendar;</tspan><tspan fill="#707070"><tspan x="0" y="144"></tspan><tspan x="0" y="162"></tspan></tspan><tspan fill="#fff"><tspan x="0" y="180">public class </tspan><tspan y="180" fill="#e0157d">AppletLogo </tspan><tspan y="180">extends</tspan><tspan y="180" fill="#707070"> </tspan><tspan y="180" fill="#e0157d">Applet </tspan><tspan x="0" y="198">implements</tspan><tspan y="198" fill="#707070"> </tspan><tspan y="198" fill="#eaa219">Runnable</tspan></tspan><tspan fill="#707070"><tspan x="0" y="216">{</tspan><tspan x="0" y="234" xml:space="preserve">  </tspan><tspan y="234" fill="#49be55">Thread </tspan><tspan y="234" fill="#fff">t,t1;</tspan><tspan x="0" y="252" xml:space="preserve">  </tspan><tspan y="252" fill="#49be55">Label </tspan><tspan y="252" fill="#fff">l1,l2;</tspan><tspan x="0" y="270" xml:space="preserve">  </tspan><tspan y="270" fill="#49be55">TextField </tspan><tspan y="270" fill="#fff">t2,t3;</tspan><tspan x="0" y="288" xml:space="preserve">  </tspan><tspan y="288" fill="#e0157d">int </tspan><tspan y="288" fill="#fff">day, month, year;</tspan><tspan x="0" y="306" xml:space="preserve">  </tspan><tspan y="306" fill="#fff">public</tspan><tspan y="306"> </tspan><tspan y="306" fill="#e0157d">void </tspan><tspan y="306" fill="#fff">init()</tspan><tspan x="0" y="324"> </tspan><tspan y="324" xml:space="preserve" fill="#fff"> {</tspan></tspan><tspan fill="#fff"><tspan x="0" y="342" xml:space="preserve">   l1=new Label(&quot;Time&quot;);</tspan><tspan x="0" y="360" xml:space="preserve">   t2=new TextField(20); </tspan><tspan x="0" y="378" xml:space="preserve">   l2=new Label(&quot;Date&quot;);</tspan><tspan x="0" y="396" xml:space="preserve">   t3=new TextField(20); </tspan><tspan x="0" y="414" xml:space="preserve">   </tspan></tspan><tspan fill="#707070"><tspan x="0" y="432" xml:space="preserve">   </tspan><tspan y="432" fill="#49be55">add</tspan><tspan y="432" fill="#fff">(l1);</tspan><tspan x="0" y="450" xml:space="preserve">   </tspan><tspan y="450" fill="#49be55">add</tspan><tspan y="450" fill="#fff">(t2);</tspan><tspan x="0" y="468" xml:space="preserve">   </tspan><tspan y="468" fill="#49be55">add</tspan><tspan y="468" fill="#fff">(l2);</tspan><tspan x="0" y="486" xml:space="preserve">   </tspan><tspan y="486" fill="#49be55">add</tspan><tspan y="486" fill="#fff">(t3); </tspan><tspan y="486"> </tspan><tspan x="0" y="504" xml:space="preserve">  </tspan><tspan y="504" fill="#fff">}</tspan><tspan y="504" xml:space="preserve">      </tspan></tspan></text>
      </g>
      <circle id="Ellipse_2" data-name="Ellipse 2" cx="5.16" cy="5.16" r="5.16" transform="translate(366.649 16.566)" fill="#f31349"/>
      <circle id="Ellipse_3" data-name="Ellipse 3" cx="5.16" cy="5.16" r="5.16" transform="translate(384.392 16.566)" fill="#49be55"/>
      <circle id="Ellipse_4" data-name="Ellipse 4" cx="5.16" cy="5.16" r="5.16" transform="translate(401.411 16.566)" fill="#eaa219"/>
    </g>
    <g id="Group_5643" data-name="Group 5643" transform="translate(222.091 3515)">
      <g id="Group_5642" data-name="Group 5642" transform="translate(0 0)">
        <g id="Group_5628-2" data-name="Group 5628" transform="translate(0 0)">
          <rect id="Rectangle_848-2" data-name="Rectangle 848" width="208.256" height="102.275" rx="28" fill="#272534"/>
        </g>
        <ellipse id="Ellipse_2-2" data-name="Ellipse 2" cx="2.49" cy="2.49" rx="2.49" ry="2.49" transform="translate(171.203 8.096)" fill="#f31349"/>
        <ellipse id="Ellipse_3-2" data-name="Ellipse 3" cx="2.49" cy="2.49" rx="2.49" ry="2.49" transform="translate(179.765 8.096)" fill="#49be55"/>
        <ellipse id="Ellipse_4-2" data-name="Ellipse 4" cx="2.49" cy="2.49" rx="2.49" ry="2.49" transform="translate(187.978 8.096)" fill="#eaa219"/>
      </g>
      <g id="Group_5641" data-name="Group 5641" transform="translate(24.875 18.549)">
        <path id="Path_12854" data-name="Path 12854" d="M719.6,334.937l23.346-23.274L719.6,288.388l7.118-7.094,30.463,30.368L726.718,342.03l-7.118-7.094Z" transform="translate(-602.492 -276.549)" opacity="0.1"/>
        <path id="Path_12855" data-name="Path 12855" d="M494.6,422.637h9.49v-9.49H494.6Zm47.64-9.49h-9.49v9.49h9.49Zm-28.565,9.49h9.49v-9.49h-9.49Z" transform="translate(-444.16 -385.863)" opacity="0.1"/>
        <path id="Path_12856" data-name="Path 12856" d="M263.581,333.937l-23.369-23.274,23.346-23.274-7.118-7.094L226,310.662l30.463,30.368Z" transform="translate(-226 -275.786)" opacity="0.1"/>
        <path id="Path_12867" data-name="Path 12867" d="M719.6,315.937l23.346-23.274L719.6,269.388l7.118-7.094,30.463,30.368L726.718,323.03l-7.118-7.094Z" transform="translate(-602.492 -262.057)" fill="#6c63ff"/>
        <path id="Path_12868" data-name="Path 12868" d="M494.6,403.637h9.49v-9.49H494.6Zm47.64-9.49h-9.49v9.49h9.49Zm-28.565,9.49h9.49v-9.49h-9.49Z" transform="translate(-444.16 -371.371)" fill="#6c63ff"/>
        <path id="Path_12871" data-name="Path 12871" d="M263.581,314.937l-23.369-23.274,23.346-23.274-7.118-7.094L226,291.662l30.463,30.368Z" transform="translate(-226 -261.294)" fill="#6c63ff"/>
      </g>
    </g>
  </g>
</svg>
