<svg xmlns="http://www.w3.org/2000/svg" width="28.544" height="23.354" viewBox="0 0 28.544 23.354">
  <path id="Icon_material-photo-size-select-large" data-name="Icon material-photo-size-select-large" d="M27.449,20.069h2.595v2.595H27.449Zm0-5.19h2.595v2.595H27.449Zm2.595,10.38H27.449v2.595A2.791,2.791,0,0,0,30.044,25.259ZM17.069,4.5h2.595V7.095H17.069Zm10.38,5.19h2.595v2.595H27.449Zm0-5.19V7.095h2.595A2.791,2.791,0,0,0,27.449,4.5ZM1.5,9.69H4.095v2.595H1.5ZM22.259,4.5h2.595V7.095H22.259Zm0,20.759h2.595v2.595H22.259ZM4.095,4.5A2.791,2.791,0,0,0,1.5,7.095H4.095Zm7.785,0h2.595V7.095H11.88Zm-5.19,0H9.285V7.095H6.69ZM1.5,14.88v10.38a2.6,2.6,0,0,0,2.595,2.595H19.664V14.88Zm2.595,10.38,3.244-4.165,2.322,2.789L12.9,19.706l4.165,5.553Z" transform="translate(-1.5 -4.5)"/>
</svg>
