<svg xmlns="http://www.w3.org/2000/svg" width="65.477" height="52.381" viewBox="0 0 65.477 52.381">
  <path id="Icon_awesome-city" data-name="Icon awesome-city" d="M63.021,19.643H49.108V2.455A2.455,2.455,0,0,0,46.652,0H31.92a2.455,2.455,0,0,0-2.455,2.455V9.822H22.917V1.637A1.636,1.636,0,0,0,21.28,0H19.643a1.636,1.636,0,0,0-1.637,1.637V9.822H11.458V1.637A1.636,1.636,0,0,0,9.822,0H8.185A1.636,1.636,0,0,0,6.548,1.637V9.822H2.455A2.455,2.455,0,0,0,0,12.277V49.108a3.274,3.274,0,0,0,3.274,3.274H62.2a3.274,3.274,0,0,0,3.274-3.274V22.1A2.455,2.455,0,0,0,63.021,19.643ZM13.1,41.332a1.227,1.227,0,0,1-1.228,1.228H7.775a1.227,1.227,0,0,1-1.228-1.228V37.24a1.227,1.227,0,0,1,1.228-1.228h4.092A1.227,1.227,0,0,1,13.1,37.24Zm0-9.822a1.227,1.227,0,0,1-1.228,1.228H7.775a1.227,1.227,0,0,1-1.228-1.228V27.418a1.227,1.227,0,0,1,1.228-1.228h4.092A1.227,1.227,0,0,1,13.1,27.418Zm0-9.822a1.227,1.227,0,0,1-1.228,1.228H7.775a1.227,1.227,0,0,1-1.228-1.228V17.6a1.227,1.227,0,0,1,1.228-1.228h4.092A1.227,1.227,0,0,1,13.1,17.6Zm13.1,19.643a1.227,1.227,0,0,1-1.228,1.228H20.871a1.227,1.227,0,0,1-1.228-1.228V37.24a1.227,1.227,0,0,1,1.228-1.228h4.092a1.227,1.227,0,0,1,1.228,1.228Zm0-9.822a1.227,1.227,0,0,1-1.228,1.228H20.871a1.227,1.227,0,0,1-1.228-1.228V27.418a1.227,1.227,0,0,1,1.228-1.228h4.092a1.227,1.227,0,0,1,1.228,1.228Zm0-9.822a1.227,1.227,0,0,1-1.228,1.228H20.871a1.227,1.227,0,0,1-1.228-1.228V17.6a1.227,1.227,0,0,1,1.228-1.228h4.092A1.227,1.227,0,0,1,26.191,17.6ZM42.56,31.511a1.227,1.227,0,0,1-1.228,1.228H37.24a1.227,1.227,0,0,1-1.228-1.228V27.418a1.227,1.227,0,0,1,1.228-1.228h4.092a1.227,1.227,0,0,1,1.228,1.228Zm0-9.822a1.227,1.227,0,0,1-1.228,1.228H37.24a1.227,1.227,0,0,1-1.228-1.228V17.6a1.227,1.227,0,0,1,1.228-1.228h4.092A1.227,1.227,0,0,1,42.56,17.6Zm0-9.822A1.227,1.227,0,0,1,41.332,13.1H37.24a1.227,1.227,0,0,1-1.228-1.228V7.775A1.227,1.227,0,0,1,37.24,6.548h4.092A1.227,1.227,0,0,1,42.56,7.775ZM58.929,41.332A1.227,1.227,0,0,1,57.7,42.56H53.609a1.227,1.227,0,0,1-1.228-1.228V37.24a1.227,1.227,0,0,1,1.228-1.228H57.7a1.227,1.227,0,0,1,1.228,1.228Zm0-9.822A1.227,1.227,0,0,1,57.7,32.738H53.609a1.227,1.227,0,0,1-1.228-1.228V27.418a1.227,1.227,0,0,1,1.228-1.228H57.7a1.227,1.227,0,0,1,1.228,1.228Z" fill="#00afe1"/>
</svg>
