<svg xmlns="http://www.w3.org/2000/svg" width="44.129" height="64.188" viewBox="0 0 44.129 64.188">
  <path id="Icon_awesome-lightbulb" data-name="Icon awesome-lightbulb" d="M12.043,56.96a4.013,4.013,0,0,0,.672,2.218L14.857,62.4a4.01,4.01,0,0,0,3.34,1.79h7.736a4.01,4.01,0,0,0,3.34-1.79l2.143-3.221a4.01,4.01,0,0,0,.672-2.218l.005-4.808H12.036l.006,4.808ZM0,22.064A21.941,21.941,0,0,0,5.461,36.579a36.027,36.027,0,0,1,6.545,11.465c.005.033.009.065.014.1H32.109c.005-.033.009-.064.014-.1a36.027,36.027,0,0,1,6.545-11.465A22.06,22.06,0,1,0,0,22.064ZM22.064,12.035A10.041,10.041,0,0,0,12.035,22.064a2.006,2.006,0,1,1-4.012,0A14.056,14.056,0,0,1,22.064,8.023a2.006,2.006,0,1,1,0,4.012Z" fill="#ddf500"/>
</svg>
