<svg xmlns="http://www.w3.org/2000/svg" width="25.372" height="22.201" viewBox="0 0 25.372 22.201">
  <path id="Icon_awesome-toolbox" data-name="Icon awesome-toolbox" d="M24.908,11.3,22.665,9.058a1.586,1.586,0,0,0-1.121-.464H19.029V4.629A2.379,2.379,0,0,0,16.65,2.25H8.722A2.379,2.379,0,0,0,6.343,4.629V8.593H3.828a1.587,1.587,0,0,0-1.121.464L.464,11.3A1.586,1.586,0,0,0,0,12.422v4.1H6.343v-.793a.793.793,0,0,1,.793-.793H8.722a.793.793,0,0,1,.793.793v.793h6.343v-.793a.793.793,0,0,1,.793-.793h1.586a.793.793,0,0,1,.793.793v.793h6.343v-4.1A1.586,1.586,0,0,0,24.908,11.3Zm-9.05-2.707H9.515V5.422h6.343ZM19.029,18.9a.793.793,0,0,1-.793.793H16.65a.793.793,0,0,1-.793-.793v-.793H9.515V18.9a.793.793,0,0,1-.793.793H7.136a.793.793,0,0,1-.793-.793v-.793H0v4.757a1.586,1.586,0,0,0,1.586,1.586h22.2a1.586,1.586,0,0,0,1.586-1.586V18.108H19.029Z" transform="translate(0 -2.25)"/>
</svg>
