<svg xmlns="http://www.w3.org/2000/svg" width="26.513" height="27.234" viewBox="0 0 26.513 27.234">
  <path id="Icon_awesome-tools" data-name="Icon awesome-tools" d="M25.946,21.046l-6.064-6.228a3.769,3.769,0,0,0-4.422-.739l-5.52-5.67v-3.3L3.313,0,0,3.4,4.97,10.212H8.186l5.52,5.67a4.038,4.038,0,0,0,.72,4.542l6.064,6.228a1.889,1.889,0,0,0,2.729,0l2.729-2.8a2.025,2.025,0,0,0,0-2.8Zm-8.772-9.079a5.376,5.376,0,0,1,3.878,1.649l1,1.032a7.321,7.321,0,0,0,2.268-1.569,7.79,7.79,0,0,0,1.962-7.27.614.614,0,0,0-1.041-.293L21.395,9.472l-3.516-.6L17.294,5.26,21.146,1.3a.648.648,0,0,0-.3-1.074,7.326,7.326,0,0,0-7.073,2.016,7.648,7.648,0,0,0-2.133,5.51L15.9,12.121A5.5,5.5,0,0,1,17.175,11.967Zm-5.38,4.361L8.859,13.312.967,21.423a3.468,3.468,0,0,0,0,4.813,3.251,3.251,0,0,0,4.686,0l6.4-6.574a5.857,5.857,0,0,1-.259-3.335ZM3.313,25.1a1.277,1.277,0,0,1,0-2.553,1.277,1.277,0,0,1,0,2.553Z" transform="translate(0.004)"/>
</svg>
