<svg xmlns="http://www.w3.org/2000/svg" width="61.272" height="61.272" viewBox="0 0 61.272 61.272">
  <path id="Icon_awesome-check-circle" data-name="Icon awesome-check-circle" d="M61.835,31.2A30.636,30.636,0,1,1,31.2.563,30.636,30.636,0,0,1,61.835,31.2ZM27.655,47.42l22.73-22.73a1.977,1.977,0,0,0,0-2.8l-2.8-2.8a1.976,1.976,0,0,0-2.8,0L26.257,37.637,17.6,28.982a1.977,1.977,0,0,0-2.8,0l-2.8,2.8a1.977,1.977,0,0,0,0,2.8L24.86,47.42a1.977,1.977,0,0,0,2.8,0Z" transform="translate(-0.563 -0.563)" fill="#20be2f"/>
</svg>
