<svg id="ios-image" xmlns="http://www.w3.org/2000/svg" width="125.077" height="125.077" viewBox="0 0 125.077 125.077">
  <path id="Path_76" data-name="Path 76" d="M108.673,172.259h57.337a1.674,1.674,0,0,0,1.353-2.646l-28.683-46.122a1.658,1.658,0,0,0-2.736,0L107.29,169.613A1.686,1.686,0,0,0,108.673,172.259Zm58.359-17.439,10.523,16.747a1.629,1.629,0,0,0,1.353.722h16a1.674,1.674,0,0,0,1.353-2.646l-18.521-26.368a1.658,1.658,0,0,0-2.736,0l-8,9.651A1.734,1.734,0,0,0,167.032,154.821Zm13.35-25.977a8.417,8.417,0,1,0-9.23-9.23A8.448,8.448,0,0,0,180.381,128.843Z" transform="translate(-89.25 -92.793)" fill="#186aa5"/>
  <path id="Path_77" data-name="Path 77" d="M163.455,48H57.621A9.611,9.611,0,0,0,48,57.621V163.455a9.611,9.611,0,0,0,9.621,9.621H163.455a9.611,9.611,0,0,0,9.621-9.621V57.621A9.611,9.611,0,0,0,163.455,48Zm-.812,84.186a2.412,2.412,0,0,1-2.405,2.405h-99.4a2.412,2.412,0,0,1-2.405-2.405V60.838a2.412,2.412,0,0,1,2.405-2.405h99.43a2.412,2.412,0,0,1,2.405,2.405v71.348Z" transform="translate(-48 -48)" fill="#186aa5"/>
</svg>
