<svg id="ios-image" xmlns="http://www.w3.org/2000/svg" width="98.288" height="98.288" viewBox="0 0 98.288 98.288">
  <path id="Path_76" data-name="Path 76" d="M108.311,159.364h45.056a1.316,1.316,0,0,0,1.063-2.079l-22.54-36.244a1.3,1.3,0,0,0-2.15,0l-22.516,36.244A1.325,1.325,0,0,0,108.311,159.364Zm45.86-13.7,8.269,13.16a1.28,1.28,0,0,0,1.063.567h12.569a1.316,1.316,0,0,0,1.063-2.079l-14.554-20.721a1.3,1.3,0,0,0-2.15,0l-6.285,7.584A1.362,1.362,0,0,0,154.171,145.66Zm10.49-20.414a6.614,6.614,0,1,0-7.253-7.253A6.639,6.639,0,0,0,164.661,125.247Z" transform="translate(-93.048 -96.918)" fill="#186aa5"/>
  <path id="Path_77" data-name="Path 77" d="M138.727,48H55.561A7.552,7.552,0,0,0,48,55.561v83.167a7.552,7.552,0,0,0,7.561,7.561h83.167a7.553,7.553,0,0,0,7.561-7.561V55.561A7.552,7.552,0,0,0,138.727,48Zm-.638,66.155a1.9,1.9,0,0,1-1.89,1.89H58.089a1.9,1.9,0,0,1-1.89-1.89V58.089a1.9,1.9,0,0,1,1.89-1.89h78.134a1.9,1.9,0,0,1,1.89,1.89v56.067Z" transform="translate(-48 -48)" fill="#186aa5"/>
</svg>
