<svg xmlns="http://www.w3.org/2000/svg" width="70" height="80" viewBox="0 0 70 80">
  <path id="Icon_metro-files-empty" data-name="Icon metro-files-empty" d="M71.2,29.825a70.826,70.826,0,0,0-6.811-7.789A70.856,70.856,0,0,0,56.6,15.224c-4.029-2.955-5.984-3.3-7.1-3.3H20.749a6.257,6.257,0,0,0-6.25,6.25v57.5a6.257,6.257,0,0,0,6.25,6.25h47.5a6.257,6.257,0,0,0,6.25-6.25V36.928c0-1.12-.342-3.074-3.3-7.1ZM60.856,25.571a68.193,68.193,0,0,1,5.67,6.357H54.5V19.9a68.143,68.143,0,0,1,6.357,5.67ZM69.5,75.678a1.267,1.267,0,0,1-1.25,1.25h-47.5a1.267,1.267,0,0,1-1.25-1.25v-57.5a1.267,1.267,0,0,1,1.25-1.25H49.5v17.5a2.5,2.5,0,0,0,2.5,2.5H69.5ZM46.6,5.225c-4.029-2.955-5.984-3.3-7.1-3.3H10.749A6.257,6.257,0,0,0,4.5,8.178v57.5a6.261,6.261,0,0,0,5,6.124V8.178a1.267,1.267,0,0,1,1.25-1.25H48.786c-.754-.619-1.487-1.192-2.184-1.7Z" transform="translate(-4.499 -1.928)" fill="#0c6096"/>
</svg>
