<svg xmlns="http://www.w3.org/2000/svg" width="87.718" height="75.182" viewBox="0 0 87.718 75.182">
  <g id="Icon_ionic-md-contacts" data-name="Icon ionic-md-contacts" transform="translate(-2.25 -4.502)">
    <g id="Group_10960" data-name="Group 10960" transform="translate(2.25 15.468)">
      <path id="Path_15295" data-name="Path 15295" d="M42.821,24.183a23.943,23.943,0,0,1-23.594,0C9.993,27,4.334,36.335,2.25,44.558H59.8C57.714,36.335,52.056,27,42.821,24.183Z" transform="translate(-2.25 19.657)" fill="#e0157d"/>
      <path id="Path_15296" data-name="Path 15296" d="M25.87,8.44A20.727,20.727,0,1,0,46.6,29.167,20.73,20.73,0,0,0,25.87,8.44Zm0,36.514a16.018,16.018,0,0,1-14.489-9.892H40.358A16.018,16.018,0,0,1,25.87,44.954Z" transform="translate(2.903 -8.44)" fill="#e0157d"/>
    </g>
    <g id="Group_10961" data-name="Group 10961" transform="translate(43.72 4.502)">
      <path id="Path_15297" data-name="Path 15297" d="M30.175,39.056H60.993c-2.083-8.224-7.741-15.995-16.976-18.811a23.8,23.8,0,0,1-11.8,3.108,23.863,23.863,0,0,1-8.256-1.467,27.471,27.471,0,0,1-5.477,6.835C23.644,30.706,27.54,35.14,30.175,39.056Z" transform="translate(-14.745 23.595)" fill="#e0157d"/>
      <path id="Path_15298" data-name="Path 15298" d="M29.428,31.125H49.1a15.981,15.981,0,0,1-14.489,9.847,14.888,14.888,0,0,1-4.968-.883,25.143,25.143,0,0,1-1.277,4.918A20.739,20.739,0,1,0,17.142,14.114,25.616,25.616,0,0,1,29.428,31.125Z" transform="translate(-17.142 -4.502)" fill="#e0157d"/>
    </g>
  </g>
</svg>
