<svg xmlns="http://www.w3.org/2000/svg" width="85.637" height="79.46" viewBox="0 0 85.637 79.46">
  <path id="Icon_zocial-statusnet" data-name="Icon zocial-statusnet" d="M-1.125,33.753A22.14,22.14,0,0,1,6.263,17.111a24.222,24.222,0,0,1,10.605-5.958,22.813,22.813,0,0,1,12.154.119,23.682,23.682,0,0,1,10.923,6.713,20.938,20.938,0,0,1,4.965,8.5A25.755,25.755,0,0,1,46.1,35.66,25.086,25.086,0,0,1,44.233,43.8a10.072,10.072,0,0,0-.238,7.39,27.533,27.533,0,0,0,3.178,7.03,61.593,61.593,0,0,0,4.012,5.439c1.4,1.7,2.105,2.569,2.105,2.624l-.874-.717q-.8-.793-1.708-1.626t-2.46-2.026Q46.7,60.73,45.226,59.772T41.85,57.786a16.107,16.107,0,0,0-3.575-1.47,21.131,21.131,0,0,0-3.535-.6,6.487,6.487,0,0,0-3.376.556,22.826,22.826,0,0,1-8.222,1.591,24.843,24.843,0,0,1-9.295-1.748A20.921,20.921,0,0,1,5.7,50.639,23.829,23.829,0,0,1-1.125,33.753ZM9.361,32.2a12.927,12.927,0,0,0,2.661,9.89,12.844,12.844,0,0,0,8.858,5.121,12.813,12.813,0,0,0,9.851-2.659A12.9,12.9,0,0,0,35.815,35.7a12.891,12.891,0,0,0-2.622-9.851,12.758,12.758,0,0,0-8.818-5.084,13.014,13.014,0,0,0-9.89,2.622A12.709,12.709,0,0,0,9.361,32.2ZM47.334,8.849A12.263,12.263,0,0,1,53.215,1.9a10.908,10.908,0,0,1,8.974-.675,11.274,11.274,0,0,1,6.872,5.72,11.455,11.455,0,0,1,.675,9.215q-1.907,5.72-9.054,8.262a12.755,12.755,0,0,0-4.409,2.661A17.051,17.051,0,0,0,53.532,30.1q-.793,1.233-1.827,3.217Q53.459,25.85,49.8,20.685,45.427,14.329,47.334,8.849Zm3.019,39.323a17.61,17.61,0,0,1,5-12.313,16.122,16.122,0,0,1,12.075-5,16.894,16.894,0,0,1,17.08,17.318q0,8.743-8.738,15.491A18.656,18.656,0,0,0,70.848,69.3a23.077,23.077,0,0,0-2.425,5.4q-.518,2.067-.991,5.323a46.169,46.169,0,0,0-.794-5.323,21.6,21.6,0,0,0-2.383-5.521,18.994,18.994,0,0,0-5.164-5.841Q50.277,56.751,50.352,48.172Zm3.019-37.5a5.468,5.468,0,0,0,.04,4.329,5.419,5.419,0,0,0,3.058,3.058,5.476,5.476,0,0,0,4.29,0,5.3,5.3,0,0,0,3.021-3.019,5.694,5.694,0,0,0,0-4.369,5.31,5.31,0,0,0-3.021-3.019,5.6,5.6,0,0,0-4.329,0A5.3,5.3,0,0,0,53.371,10.676Zm5.283,40.872a9.311,9.311,0,0,0,5.2,5.2,9.118,9.118,0,0,0,7.309-.04,9.308,9.308,0,0,0,5.164-5.206,9.136,9.136,0,0,0,0-7.269,9.466,9.466,0,0,0-5.164-5.2A9.545,9.545,0,0,0,58.694,44.2,9.437,9.437,0,0,0,58.654,51.548Z" transform="translate(1.125 -0.567)" fill="#2269f5"/>
</svg>
