<svg xmlns="http://www.w3.org/2000/svg" width="27.893" height="18.631" viewBox="0 0 27.893 18.631">
  <path id="Icon_payment-cash" data-name="Icon payment-cash" d="M34.342,17.276V34.054a1.2,1.2,0,0,1-.272.654.89.89,0,0,1-.654.273H7.375a.887.887,0,0,1-.654-.272,1.191,1.191,0,0,1-.272-.654V17.276a1.194,1.194,0,0,1,.272-.654.892.892,0,0,1,.654-.272h26.04a.893.893,0,0,1,.654.272,1.2,1.2,0,0,1,.273.654ZM32.489,29.37V21.961a3.564,3.564,0,0,1-2.615-1.09,3.627,3.627,0,0,1-1.09-2.669H12.006a3.63,3.63,0,0,1-1.09,2.669A3.566,3.566,0,0,1,8.3,21.961V29.37a3.569,3.569,0,0,1,2.615,1.09,3.632,3.632,0,0,1,1.09,2.669H28.785a3.629,3.629,0,0,1,1.09-2.669,3.568,3.568,0,0,1,2.615-1.089Zm-7.463-3.7a9.547,9.547,0,0,1-.272,2.07,6.981,6.981,0,0,1-.872,1.961,4.735,4.735,0,0,1-1.471,1.471,4,4,0,0,1-4.031,0A4.719,4.719,0,0,1,16.91,29.7a6.963,6.963,0,0,1-.872-1.961,9.5,9.5,0,0,1-.272-2.07,9.51,9.51,0,0,1,.272-2.07,6.96,6.96,0,0,1,.872-1.961,4.734,4.734,0,0,1,1.471-1.471,4,4,0,0,1,4.031,0,4.758,4.758,0,0,1,1.471,1.471,6.984,6.984,0,0,1,.872,1.961,9.538,9.538,0,0,1,.273,2.07Zm-7.409,3.7h5.557V28.008H21.322V21.471H19.687l-2.179,2.016,1.144,1.144a8.92,8.92,0,0,0,.763-.817h.054v4.195H17.617V29.37Z" transform="translate(-6.449 -16.35)" fill="#49be55"/>
</svg>
